<svg xmlns="http://www.w3.org/2000/svg" width="150" height="150" viewBox="120 120 160 160">
  <!-- 主要logo图形 - 绿色部分 -->
  <path d="M178.010 57.760 C 176.306 58.534,176.379 58.044,176.261 69.459 L 176.155 79.589 175.630 80.150 C 174.531 81.326,174.762 81.303,164.222 81.303 L 154.474 81.303 153.763 81.782 C 152.451 82.666,152.519 81.309,152.575 105.301 L 152.626 127.303 153.313 127.990 L 153.999 128.676 164.132 128.782 L 174.265 128.887 174.971 129.390 C 176.261 130.311,176.261 130.304,176.261 140.929 L 176.261 150.568 176.737 151.282 C 177.770 152.827,176.213 152.730,199.986 152.731 C 220.919 152.731,221.311 152.724,222.170 152.308 C 223.663 151.585,223.622 151.883,223.739 140.756 C 223.881 127.338,222.401 128.782,236.012 128.782 L 245.804 128.782 246.589 128.062 L 247.374 127.343 247.432 117.301 C 247.496 106.462,247.500 106.505,246.359 105.725 L 245.667 105.252 235.624 105.252 L 225.581 105.252 224.765 106.068 L 223.950 106.883 223.950 116.698 C 223.950 127.394,223.947 127.417,222.739 128.367 C 222.222 128.774,221.798 128.781,200.024 128.774 L 177.836 128.766 177.269 128.301 C 175.997 127.257,176.050 128.285,176.050 105.042 C 176.050 81.816,175.988 82.973,177.298 81.870 L 177.973 81.303 199.438 81.301 C 222.255 81.300,221.989 81.312,223.016 80.240 L 223.634 79.595 223.739 70.309 C 223.871 58.681,223.867 58.650,222.044 57.721 C 220.882 57.128,179.320 57.165,178.010 57.760" 
        fill="#acfb07" 
        transform="translate(0, 90)"/>
  
  <!-- 深色背景部分 -->
  <path d="M159.349 34.041 C 145.581 35.081,136.525 41.283,131.292 53.256 C 131.191 53.487,130.955 54.196,130.767 54.832 C 130.578 55.467,130.347 56.176,130.252 56.408 C 130.050 56.898,129.731 58.514,129.255 61.450 C 128.731 64.678,128.591 143.104,129.102 147.059 C 131.106 162.589,139.995 172.800,153.676 175.290 C 158.553 176.178,157.355 176.155,200.000 176.155 C 242.688 176.155,241.522 176.177,246.324 175.283 C 258.457 173.023,268.084 163.357,270.247 151.261 C 270.423 150.278,270.687 148.813,270.833 148.004 C 271.277 145.557,271.349 66.807,270.910 63.130 C 270.532 59.955,270.006 56.985,269.730 56.463 C 269.625 56.262,269.538 55.958,269.538 55.786 C 269.538 55.380,268.443 52.583,267.602 50.840 C 264.630 44.685,258.458 38.926,252.299 36.562 C 251.670 36.320,250.966 36.043,250.735 35.945 C 249.561 35.447,246.942 34.856,243.067 34.215 C 241.272 33.917,163.132 33.755,159.349 34.041 M222.254 57.721 C 223.917 58.569,223.845 58.037,223.845 69.328 C 223.845 79.165,223.835 79.394,223.409 79.974 C 222.375 81.385,223.847 81.302,199.895 81.303 C 178.562 81.304,178.246 81.310,177.561 81.728 C 176.197 82.560,176.260 81.416,176.261 105.193 C 176.262 129.330,176.158 127.653,177.711 128.456 C 178.803 129.021,221.481 128.940,222.413 128.372 C 223.654 127.615,223.625 127.859,223.739 117.007 C 223.881 103.572,222.407 105.044,235.714 105.044 C 249.095 105.044,247.687 103.633,247.688 117.038 L 247.689 126.829 247.216 127.521 C 246.194 129.019,246.416 128.992,235.422 128.992 L 225.565 128.992 224.765 129.833 L 223.965 130.674 223.905 140.714 C 223.838 151.860,223.895 151.418,222.415 152.320 C 221.761 152.719,221.182 152.730,200.042 152.730 C 176.140 152.731,177.639 152.815,176.645 151.421 L 176.155 150.735 176.111 141.176 C 176.087 135.919,176.063 131.404,176.059 131.142 C 176.054 130.880,175.727 130.313,175.332 129.881 L 174.613 129.097 164.460 128.992 L 154.307 128.887 153.600 128.383 C 152.246 127.416,152.311 128.600,152.311 105.040 C 152.311 84.223,152.323 83.573,152.719 82.797 C 153.565 81.138,153.070 81.210,164.391 81.092 C 175.159 80.980,175.010 80.996,175.758 79.893 C 176.132 79.341,176.159 78.716,176.212 69.250 C 176.275 58.002,176.227 58.344,177.814 57.653 C 178.945 57.161,221.282 57.225,222.254 57.721" 
        fill="#242c23" 
        transform="translate(0, 90)"/>
</svg>
